<svg width="354" height="365" viewBox="0 0 354 365" fill="none" xmlns="http://www.w3.org/2000/svg">
<path d="M349.5 182.5C349.5 280.267 272.257 359.5 177 359.5C81.7429 359.5 4.5 280.267 4.5 182.5C4.5 84.7334 81.7429 5.5 177 5.5C272.257 5.5 349.5 84.7334 349.5 182.5Z" stroke="black"/>
<ellipse cx="177" cy="171.5" rx="61" ry="39.5" fill="#C2C2C2" stroke="black"/>
<g filter="url(#filter0_d_102_11)">
<ellipse cx="71" cy="171.5" rx="61" ry="39.5" fill="white"/>
<path d="M131.5 171.5C131.5 182.182 124.813 191.919 113.862 199.011C102.915 206.099 87.7626 210.5 71 210.5C54.2374 210.5 39.0849 206.099 28.1383 199.011C17.1867 191.919 10.5 182.182 10.5 171.5C10.5 160.818 17.1867 151.081 28.1383 143.989C39.0849 136.901 54.2374 132.5 71 132.5C87.7626 132.5 102.915 136.901 113.862 143.989C124.813 151.081 131.5 160.818 131.5 171.5Z" stroke="black"/>
</g>
<g filter="url(#filter1_d_102_11)">
<ellipse cx="283" cy="171.5" rx="61" ry="39.5" fill="white"/>
<path d="M343.5 171.5C343.5 182.182 336.813 191.919 325.862 199.011C314.915 206.099 299.763 210.5 283 210.5C266.237 210.5 251.085 206.099 240.138 199.011C229.187 191.919 222.5 182.182 222.5 171.5C222.5 160.818 229.187 151.081 240.138 143.989C251.085 136.901 266.237 132.5 283 132.5C299.763 132.5 314.915 136.901 325.862 143.989C336.813 151.081 343.5 160.818 343.5 171.5Z" stroke="black"/>
</g>
<path d="M116 178H238V355H116V178Z" fill="#C2C2C2"/>
<path d="M238 355V355.5H238.5V355H238ZM116 355H115.5V355.5H116V355ZM237.5 178V355H238.5V178H237.5ZM238 354.5H116V355.5H238V354.5ZM116.5 355V178H115.5V355H116.5Z" fill="black"/>
<g filter="url(#filter2_d_102_11)">
<mask id="path-9-inside-1_102_11" fill="white">
<path d="M222 172H344V345H222V172Z"/>
</mask>
<path d="M222 172H344V345H222V172Z" fill="white"/>
<path d="M344 345V346H345V345H344ZM222 345H221V346H222V345ZM343 172V345H345V172H343ZM344 344H222V346H344V344ZM223 345V172H221V345H223Z" fill="black" mask="url(#path-9-inside-1_102_11)"/>
</g>
<g filter="url(#filter3_d_102_11)">
<mask id="path-11-inside-2_102_11" fill="white">
<path d="M10 172H132V345H10V172Z"/>
</mask>
<path d="M10 172H132V345H10V172Z" fill="white"/>
<path d="M132 345V346H133V345H132ZM10 345H9V346H10V345ZM131 172V345H133V172H131ZM132 344H10V346H132V344ZM11 345V172H9V345H11Z" fill="black" mask="url(#path-11-inside-2_102_11)"/>
</g>
<g filter="url(#filter4_d_102_11)">
<circle cx="17.5" cy="164.5" r="13.5" fill="#D9D9D9"/>
<circle cx="17.5" cy="164.5" r="13" stroke="black"/>
</g>
<g filter="url(#filter5_d_102_11)">
<circle cx="336.5" cy="164.5" r="13.5" fill="#D9D9D9"/>
<circle cx="336.5" cy="164.5" r="13" stroke="black"/>
</g>
<path d="M149 136.5C171.37 144.466 183.645 144.684 205 136.5" stroke="black"/>
<path d="M43 137C65.3698 144.966 77.6449 145.184 99 137" stroke="black"/>
<path d="M255 137C277.37 144.966 289.645 145.184 311 137" stroke="black"/>
<g filter="url(#filter6_d_102_11)">
<circle cx="177" cy="102" r="35" fill="#C2C2C2"/>
<circle cx="177" cy="102" r="35" stroke="black"/>
</g>
<g filter="url(#filter7_d_102_11)">
<circle cx="283" cy="102" r="35" fill="white"/>
<circle cx="283" cy="102" r="34.5" stroke="black"/>
</g>
<g filter="url(#filter8_d_102_11)">
<circle cx="71" cy="102" r="35" fill="white"/>
<circle cx="71" cy="102" r="34.5" stroke="black"/>
</g>
<defs>
<filter id="filter0_d_102_11" x="6" y="132" width="130" height="87" filterUnits="userSpaceOnUse" color-interpolation-filters="sRGB">
<feFlood flood-opacity="0" result="BackgroundImageFix"/>
<feColorMatrix in="SourceAlpha" type="matrix" values="0 0 0 0 0 0 0 0 0 0 0 0 0 0 0 0 0 0 127 0" result="hardAlpha"/>
<feOffset dy="4"/>
<feGaussianBlur stdDeviation="2"/>
<feComposite in2="hardAlpha" operator="out"/>
<feColorMatrix type="matrix" values="0 0 0 0 0 0 0 0 0 0 0 0 0 0 0 0 0 0 0.25 0"/>
<feBlend mode="normal" in2="BackgroundImageFix" result="effect1_dropShadow_102_11"/>
<feBlend mode="normal" in="SourceGraphic" in2="effect1_dropShadow_102_11" result="shape"/>
</filter>
<filter id="filter1_d_102_11" x="218" y="132" width="130" height="87" filterUnits="userSpaceOnUse" color-interpolation-filters="sRGB">
<feFlood flood-opacity="0" result="BackgroundImageFix"/>
<feColorMatrix in="SourceAlpha" type="matrix" values="0 0 0 0 0 0 0 0 0 0 0 0 0 0 0 0 0 0 127 0" result="hardAlpha"/>
<feOffset dy="4"/>
<feGaussianBlur stdDeviation="2"/>
<feComposite in2="hardAlpha" operator="out"/>
<feColorMatrix type="matrix" values="0 0 0 0 0 0 0 0 0 0 0 0 0 0 0 0 0 0 0.25 0"/>
<feBlend mode="normal" in2="BackgroundImageFix" result="effect1_dropShadow_102_11"/>
<feBlend mode="normal" in="SourceGraphic" in2="effect1_dropShadow_102_11" result="shape"/>
</filter>
<filter id="filter2_d_102_11" x="218" y="172" width="130" height="181" filterUnits="userSpaceOnUse" color-interpolation-filters="sRGB">
<feFlood flood-opacity="0" result="BackgroundImageFix"/>
<feColorMatrix in="SourceAlpha" type="matrix" values="0 0 0 0 0 0 0 0 0 0 0 0 0 0 0 0 0 0 127 0" result="hardAlpha"/>
<feOffset dy="4"/>
<feGaussianBlur stdDeviation="2"/>
<feComposite in2="hardAlpha" operator="out"/>
<feColorMatrix type="matrix" values="0 0 0 0 0 0 0 0 0 0 0 0 0 0 0 0 0 0 0.25 0"/>
<feBlend mode="normal" in2="BackgroundImageFix" result="effect1_dropShadow_102_11"/>
<feBlend mode="normal" in="SourceGraphic" in2="effect1_dropShadow_102_11" result="shape"/>
</filter>
<filter id="filter3_d_102_11" x="6" y="172" width="130" height="181" filterUnits="userSpaceOnUse" color-interpolation-filters="sRGB">
<feFlood flood-opacity="0" result="BackgroundImageFix"/>
<feColorMatrix in="SourceAlpha" type="matrix" values="0 0 0 0 0 0 0 0 0 0 0 0 0 0 0 0 0 0 127 0" result="hardAlpha"/>
<feOffset dy="4"/>
<feGaussianBlur stdDeviation="2"/>
<feComposite in2="hardAlpha" operator="out"/>
<feColorMatrix type="matrix" values="0 0 0 0 0 0 0 0 0 0 0 0 0 0 0 0 0 0 0.25 0"/>
<feBlend mode="normal" in2="BackgroundImageFix" result="effect1_dropShadow_102_11"/>
<feBlend mode="normal" in="SourceGraphic" in2="effect1_dropShadow_102_11" result="shape"/>
</filter>
<filter id="filter4_d_102_11" x="0" y="151" width="35" height="35" filterUnits="userSpaceOnUse" color-interpolation-filters="sRGB">
<feFlood flood-opacity="0" result="BackgroundImageFix"/>
<feColorMatrix in="SourceAlpha" type="matrix" values="0 0 0 0 0 0 0 0 0 0 0 0 0 0 0 0 0 0 127 0" result="hardAlpha"/>
<feOffset dy="4"/>
<feGaussianBlur stdDeviation="2"/>
<feComposite in2="hardAlpha" operator="out"/>
<feColorMatrix type="matrix" values="0 0 0 0 0 0 0 0 0 0 0 0 0 0 0 0 0 0 0.25 0"/>
<feBlend mode="normal" in2="BackgroundImageFix" result="effect1_dropShadow_102_11"/>
<feBlend mode="normal" in="SourceGraphic" in2="effect1_dropShadow_102_11" result="shape"/>
</filter>
<filter id="filter5_d_102_11" x="319" y="151" width="35" height="35" filterUnits="userSpaceOnUse" color-interpolation-filters="sRGB">
<feFlood flood-opacity="0" result="BackgroundImageFix"/>
<feColorMatrix in="SourceAlpha" type="matrix" values="0 0 0 0 0 0 0 0 0 0 0 0 0 0 0 0 0 0 127 0" result="hardAlpha"/>
<feOffset dy="4"/>
<feGaussianBlur stdDeviation="2"/>
<feComposite in2="hardAlpha" operator="out"/>
<feColorMatrix type="matrix" values="0 0 0 0 0 0 0 0 0 0 0 0 0 0 0 0 0 0 0.25 0"/>
<feBlend mode="normal" in2="BackgroundImageFix" result="effect1_dropShadow_102_11"/>
<feBlend mode="normal" in="SourceGraphic" in2="effect1_dropShadow_102_11" result="shape"/>
</filter>
<filter id="filter6_d_102_11" x="137.5" y="66.5" width="79" height="79" filterUnits="userSpaceOnUse" color-interpolation-filters="sRGB">
<feFlood flood-opacity="0" result="BackgroundImageFix"/>
<feColorMatrix in="SourceAlpha" type="matrix" values="0 0 0 0 0 0 0 0 0 0 0 0 0 0 0 0 0 0 127 0" result="hardAlpha"/>
<feOffset dy="4"/>
<feGaussianBlur stdDeviation="2"/>
<feComposite in2="hardAlpha" operator="out"/>
<feColorMatrix type="matrix" values="0 0 0 0 0 0 0 0 0 0 0 0 0 0 0 0 0 0 0.25 0"/>
<feBlend mode="normal" in2="BackgroundImageFix" result="effect1_dropShadow_102_11"/>
<feBlend mode="normal" in="SourceGraphic" in2="effect1_dropShadow_102_11" result="shape"/>
</filter>
<filter id="filter7_d_102_11" x="244" y="67" width="78" height="78" filterUnits="userSpaceOnUse" color-interpolation-filters="sRGB">
<feFlood flood-opacity="0" result="BackgroundImageFix"/>
<feColorMatrix in="SourceAlpha" type="matrix" values="0 0 0 0 0 0 0 0 0 0 0 0 0 0 0 0 0 0 127 0" result="hardAlpha"/>
<feOffset dy="4"/>
<feGaussianBlur stdDeviation="2"/>
<feComposite in2="hardAlpha" operator="out"/>
<feColorMatrix type="matrix" values="0 0 0 0 0 0 0 0 0 0 0 0 0 0 0 0 0 0 0.25 0"/>
<feBlend mode="normal" in2="BackgroundImageFix" result="effect1_dropShadow_102_11"/>
<feBlend mode="normal" in="SourceGraphic" in2="effect1_dropShadow_102_11" result="shape"/>
</filter>
<filter id="filter8_d_102_11" x="32" y="67" width="78" height="78" filterUnits="userSpaceOnUse" color-interpolation-filters="sRGB">
<feFlood flood-opacity="0" result="BackgroundImageFix"/>
<feColorMatrix in="SourceAlpha" type="matrix" values="0 0 0 0 0 0 0 0 0 0 0 0 0 0 0 0 0 0 127 0" result="hardAlpha"/>
<feOffset dy="4"/>
<feGaussianBlur stdDeviation="2"/>
<feComposite in2="hardAlpha" operator="out"/>
<feColorMatrix type="matrix" values="0 0 0 0 0 0 0 0 0 0 0 0 0 0 0 0 0 0 0.25 0"/>
<feBlend mode="normal" in2="BackgroundImageFix" result="effect1_dropShadow_102_11"/>
<feBlend mode="normal" in="SourceGraphic" in2="effect1_dropShadow_102_11" result="shape"/>
</filter>
</defs>
</svg>
